<?xml version="1.0" standalone="no"?>
<!DOCTYPE svg PUBLIC "-//W3C//DTD SVG 20010904//EN"
 "http://www.w3.org/TR/2001/REC-SVG-20010904/DTD/svg10.dtd">
<svg version="1.0" xmlns="http://www.w3.org/2000/svg"
 width="2000.000000pt" height="2000.000000pt" viewBox="0 0 2000.000000 2000.000000"
 preserveAspectRatio="xMidYMid meet">

<g transform="translate(0.000000,2000.000000) scale(0.100000,-0.100000)"
fill="#000000" stroke="none">
<path d="M10168 13831 c-252 -37 -460 -70 -463 -72 -2 -3 17 -36 43 -75 26
-38 145 -213 264 -389 119 -176 338 -500 486 -720 149 -220 330 -488 402 -595
133 -197 183 -272 660 -975 l265 -390 5 -2258 5 -2257 465 299 465 299 3 2057
2 2056 -192 285 c-106 157 -249 368 -318 469 -69 102 -262 388 -430 636 -168
249 -379 561 -470 695 -91 134 -280 415 -420 624 -242 360 -257 379 -285 379
-16 -1 -236 -31 -487 -68z"/>
<path d="M9214 13543 c-32 -54 -119 -201 -194 -328 -245 -412 -889 -1495
-1040 -1750 -42 -71 -147 -247 -232 -390 -85 -143 -228 -384 -318 -535 -89
-151 -171 -289 -181 -306 -19 -31 -19 -95 -19 -2065 0 -1119 0 -2043 0 -2054
0 -20 6 -20 2041 -18 1122 2 2045 5 2050 9 14 8 12 4070 -2 4097 -10 19 -215
365 -394 667 -197 331 -366 614 -550 925 -114 193 -307 517 -428 720 -121 204
-261 440 -312 525 -289 488 -357 600 -360 600 -2 0 -30 -44 -61 -97z m183
-588 c232 -389 317 -531 393 -660 42 -71 227 -382 410 -690 183 -308 367 -618
410 -690 42 -71 121 -204 175 -295 54 -91 142 -240 196 -331 l99 -167 0 -1891
0 -1891 -1805 0 -1805 0 0 1891 0 1891 117 196 c64 109 227 384 363 612 232
389 406 683 1059 1782 146 246 266 446 267 445 1 -1 56 -92 121 -202z"/>
</g>
</svg>
